<svg width="22" height="47" viewBox="0 0 22 47" fill="none" xmlns="http://www.w3.org/2000/svg">
<mask id="path-1-outside-1_220_7359" maskUnits="userSpaceOnUse" x="0" y="0" width="20" height="47" fill="black">
<rect fill="white" width="20" height="47"/>
<path d="M0.362744 12.6373V11.5325H1.46746V12.6373H0.362744ZM2.2012 12.6373V11.5325H3.29767V12.6373H2.2012ZM4.0314 12.6373V11.5325H5.12788V12.6373H4.0314ZM5.86161 12.6373V11.5325H6.95809V12.6373H5.86161ZM7.69182 10.7988V9.70233H8.79654V10.7988H7.69182ZM7.69182 8.9686V7.87212H8.79654V8.9686H7.69182ZM2.2012 7.13839V6.04191H3.29767V7.13839H2.2012ZM4.0314 7.13839V6.04191H5.12788V7.13839H4.0314ZM5.86161 7.13839V6.04191H6.95809V7.13839H5.86161ZM0.362744 5.30818V4.20346H1.46746V5.30818H0.362744ZM0.362744 3.46973V2.37325H1.46746V3.46973H0.362744ZM2.2012 1.63952V0.543043H3.29767V1.63952H2.2012ZM4.0314 1.63952V0.543043H5.12788V1.63952H4.0314ZM5.86161 1.63952V0.543043H6.95809V1.63952H5.86161ZM7.69182 1.63952V0.543043H8.79654V1.63952H7.69182ZM12.6881 12.6373V11.5325H13.7845V12.6373H12.6881ZM14.5183 12.6373V11.5325H15.6147V12.6373H14.5183ZM16.3485 12.6373V11.5325H17.4449V12.6373H16.3485ZM10.8496 10.7988V9.70233H11.9543V10.7988H10.8496ZM18.1787 10.7988V9.70233H19.2834V10.7988H18.1787ZM10.8496 8.9686V7.87212H11.9543V8.9686H10.8496ZM12.6881 8.9686V7.87212H13.7845V8.9686H12.6881ZM18.1787 8.9686V7.87212H19.2834V8.9686H18.1787ZM10.8496 7.13839V6.04191H11.9543V7.13839H10.8496ZM14.5183 7.13839V6.04191H15.6147V7.13839H14.5183ZM18.1787 7.13839V6.04191H19.2834V7.13839H18.1787ZM10.8496 5.30818V4.20346H11.9543V5.30818H10.8496ZM16.3485 5.30818V4.20346H17.4449V5.30818H16.3485ZM18.1787 5.30818V4.20346H19.2834V5.30818H18.1787ZM10.8496 3.46973V2.37325H11.9543V3.46973H10.8496ZM18.1787 3.46973V2.37325H19.2834V3.46973H18.1787ZM12.6881 1.63952V0.543043H13.7845V1.63952H12.6881ZM14.5183 1.63952V0.543043H15.6147V1.63952H14.5183ZM16.3485 1.63952V0.543043H17.4449V1.63952H16.3485ZM0.362744 29.6373V28.5325H1.46746V29.6373H0.362744ZM7.69182 29.6373V28.5325H8.79654V29.6373H7.69182ZM0.362744 27.7988V26.7023H1.46746V27.7988H0.362744ZM7.69182 27.7988V26.7023H8.79654V27.7988H7.69182ZM0.362744 25.9686V24.8721H1.46746V25.9686H0.362744ZM7.69182 25.9686V24.8721H8.79654V25.9686H7.69182ZM0.362744 24.1384V23.0419H1.46746V24.1384H0.362744ZM4.0314 24.1384V23.0419H5.12788V24.1384H4.0314ZM7.69182 24.1384V23.0419H8.79654V24.1384H7.69182ZM0.362744 22.3082V21.2035H1.46746V22.3082H0.362744ZM4.0314 22.3082V21.2035H5.12788V22.3082H4.0314ZM7.69182 22.3082V21.2035H8.79654V22.3082H7.69182ZM0.362744 20.4697V19.3733H1.46746V20.4697H0.362744ZM2.2012 20.4697V19.3733H3.29767V20.4697H2.2012ZM5.86161 20.4697V19.3733H6.95809V20.4697H5.86161ZM7.69182 20.4697V19.3733H8.79654V20.4697H7.69182ZM0.362744 18.6395V17.543H1.46746V18.6395H0.362744ZM7.69182 18.6395V17.543H8.79654V18.6395H7.69182ZM10.8496 29.6373V28.5325H11.9543V29.6373H10.8496ZM12.6881 29.6373V28.5325H13.7845V29.6373H12.6881ZM14.5183 29.6373V28.5325H15.6147V29.6373H14.5183ZM16.3485 29.6373V28.5325H17.4449V29.6373H16.3485ZM18.1787 29.6373V28.5325H19.2834V29.6373H18.1787ZM10.8496 27.7988V26.7023H11.9543V27.7988H10.8496ZM10.8496 25.9686V24.8721H11.9543V25.9686H10.8496ZM10.8496 24.1384V23.0419H11.9543V24.1384H10.8496ZM12.6881 24.1384V23.0419H13.7845V24.1384H12.6881ZM14.5183 24.1384V23.0419H15.6147V24.1384H14.5183ZM16.3485 24.1384V23.0419H17.4449V24.1384H16.3485ZM10.8496 22.3082V21.2035H11.9543V22.3082H10.8496ZM10.8496 20.4697V19.3733H11.9543V20.4697H10.8496ZM10.8496 18.6395V17.543H11.9543V18.6395H10.8496ZM12.6881 18.6395V17.543H13.7845V18.6395H12.6881ZM14.5183 18.6395V17.543H15.6147V18.6395H14.5183ZM16.3485 18.6395V17.543H17.4449V18.6395H16.3485ZM18.1787 18.6395V17.543H19.2834V18.6395H18.1787ZM0.362744 46.6373V45.5325H1.46746V46.6373H0.362744ZM2.2012 46.6373V45.5325H3.29767V46.6373H2.2012ZM4.0314 46.6373V45.5325H5.12788V46.6373H4.0314ZM5.86161 46.6373V45.5325H6.95809V46.6373H5.86161ZM7.69182 46.6373V45.5325H8.79654V46.6373H7.69182ZM4.0314 44.7988V43.7023H5.12788V44.7988H4.0314ZM4.0314 42.9686V41.8721H5.12788V42.9686H4.0314ZM4.0314 41.1384V40.0419H5.12788V41.1384H4.0314ZM4.0314 39.3082V38.2035H5.12788V39.3082H4.0314ZM0.362744 37.4697V36.3733H1.46746V37.4697H0.362744ZM2.2012 37.4697V36.3733H3.29767V37.4697H2.2012ZM4.0314 37.4697V36.3733H5.12788V37.4697H4.0314ZM4.0314 35.6395V34.543H5.12788V35.6395H4.0314Z"/>
</mask>
<path d="M0.362744 12.6373V11.5325H1.46746V12.6373H0.362744ZM2.2012 12.6373V11.5325H3.29767V12.6373H2.2012ZM4.0314 12.6373V11.5325H5.12788V12.6373H4.0314ZM5.86161 12.6373V11.5325H6.95809V12.6373H5.86161ZM7.69182 10.7988V9.70233H8.79654V10.7988H7.69182ZM7.69182 8.9686V7.87212H8.79654V8.9686H7.69182ZM2.2012 7.13839V6.04191H3.29767V7.13839H2.2012ZM4.0314 7.13839V6.04191H5.12788V7.13839H4.0314ZM5.86161 7.13839V6.04191H6.95809V7.13839H5.86161ZM0.362744 5.30818V4.20346H1.46746V5.30818H0.362744ZM0.362744 3.46973V2.37325H1.46746V3.46973H0.362744ZM2.2012 1.63952V0.543043H3.29767V1.63952H2.2012ZM4.0314 1.63952V0.543043H5.12788V1.63952H4.0314ZM5.86161 1.63952V0.543043H6.95809V1.63952H5.86161ZM7.69182 1.63952V0.543043H8.79654V1.63952H7.69182ZM12.6881 12.6373V11.5325H13.7845V12.6373H12.6881ZM14.5183 12.6373V11.5325H15.6147V12.6373H14.5183ZM16.3485 12.6373V11.5325H17.4449V12.6373H16.3485ZM10.8496 10.7988V9.70233H11.9543V10.7988H10.8496ZM18.1787 10.7988V9.70233H19.2834V10.7988H18.1787ZM10.8496 8.9686V7.87212H11.9543V8.9686H10.8496ZM12.6881 8.9686V7.87212H13.7845V8.9686H12.6881ZM18.1787 8.9686V7.87212H19.2834V8.9686H18.1787ZM10.8496 7.13839V6.04191H11.9543V7.13839H10.8496ZM14.5183 7.13839V6.04191H15.6147V7.13839H14.5183ZM18.1787 7.13839V6.04191H19.2834V7.13839H18.1787ZM10.8496 5.30818V4.20346H11.9543V5.30818H10.8496ZM16.3485 5.30818V4.20346H17.4449V5.30818H16.3485ZM18.1787 5.30818V4.20346H19.2834V5.30818H18.1787ZM10.8496 3.46973V2.37325H11.9543V3.46973H10.8496ZM18.1787 3.46973V2.37325H19.2834V3.46973H18.1787ZM12.6881 1.63952V0.543043H13.7845V1.63952H12.6881ZM14.5183 1.63952V0.543043H15.6147V1.63952H14.5183ZM16.3485 1.63952V0.543043H17.4449V1.63952H16.3485ZM0.362744 29.6373V28.5325H1.46746V29.6373H0.362744ZM7.69182 29.6373V28.5325H8.79654V29.6373H7.69182ZM0.362744 27.7988V26.7023H1.46746V27.7988H0.362744ZM7.69182 27.7988V26.7023H8.79654V27.7988H7.69182ZM0.362744 25.9686V24.8721H1.46746V25.9686H0.362744ZM7.69182 25.9686V24.8721H8.79654V25.9686H7.69182ZM0.362744 24.1384V23.0419H1.46746V24.1384H0.362744ZM4.0314 24.1384V23.0419H5.12788V24.1384H4.0314ZM7.69182 24.1384V23.0419H8.79654V24.1384H7.69182ZM0.362744 22.3082V21.2035H1.46746V22.3082H0.362744ZM4.0314 22.3082V21.2035H5.12788V22.3082H4.0314ZM7.69182 22.3082V21.2035H8.79654V22.3082H7.69182ZM0.362744 20.4697V19.3733H1.46746V20.4697H0.362744ZM2.2012 20.4697V19.3733H3.29767V20.4697H2.2012ZM5.86161 20.4697V19.3733H6.95809V20.4697H5.86161ZM7.69182 20.4697V19.3733H8.79654V20.4697H7.69182ZM0.362744 18.6395V17.543H1.46746V18.6395H0.362744ZM7.69182 18.6395V17.543H8.79654V18.6395H7.69182ZM10.8496 29.6373V28.5325H11.9543V29.6373H10.8496ZM12.6881 29.6373V28.5325H13.7845V29.6373H12.6881ZM14.5183 29.6373V28.5325H15.6147V29.6373H14.5183ZM16.3485 29.6373V28.5325H17.4449V29.6373H16.3485ZM18.1787 29.6373V28.5325H19.2834V29.6373H18.1787ZM10.8496 27.7988V26.7023H11.9543V27.7988H10.8496ZM10.8496 25.9686V24.8721H11.9543V25.9686H10.8496ZM10.8496 24.1384V23.0419H11.9543V24.1384H10.8496ZM12.6881 24.1384V23.0419H13.7845V24.1384H12.6881ZM14.5183 24.1384V23.0419H15.6147V24.1384H14.5183ZM16.3485 24.1384V23.0419H17.4449V24.1384H16.3485ZM10.8496 22.3082V21.2035H11.9543V22.3082H10.8496ZM10.8496 20.4697V19.3733H11.9543V20.4697H10.8496ZM10.8496 18.6395V17.543H11.9543V18.6395H10.8496ZM12.6881 18.6395V17.543H13.7845V18.6395H12.6881ZM14.5183 18.6395V17.543H15.6147V18.6395H14.5183ZM16.3485 18.6395V17.543H17.4449V18.6395H16.3485ZM18.1787 18.6395V17.543H19.2834V18.6395H18.1787ZM0.362744 46.6373V45.5325H1.46746V46.6373H0.362744ZM2.2012 46.6373V45.5325H3.29767V46.6373H2.2012ZM4.0314 46.6373V45.5325H5.12788V46.6373H4.0314ZM5.86161 46.6373V45.5325H6.95809V46.6373H5.86161ZM7.69182 46.6373V45.5325H8.79654V46.6373H7.69182ZM4.0314 44.7988V43.7023H5.12788V44.7988H4.0314ZM4.0314 42.9686V41.8721H5.12788V42.9686H4.0314ZM4.0314 41.1384V40.0419H5.12788V41.1384H4.0314ZM4.0314 39.3082V38.2035H5.12788V39.3082H4.0314ZM0.362744 37.4697V36.3733H1.46746V37.4697H0.362744ZM2.2012 37.4697V36.3733H3.29767V37.4697H2.2012ZM4.0314 37.4697V36.3733H5.12788V37.4697H4.0314ZM4.0314 35.6395V34.543H5.12788V35.6395H4.0314Z" fill="white"/>
<path d="M0.362744 12.6373H0.128838V12.8712H0.362744V12.6373ZM0.362744 11.5325V11.2986H0.128838V11.5325H0.362744ZM1.46746 11.5325H1.70137V11.2986H1.46746V11.5325ZM1.46746 12.6373V12.8712H1.70137V12.6373H1.46746ZM2.2012 12.6373H1.96729V12.8712H2.2012V12.6373ZM2.2012 11.5325V11.2986H1.96729V11.5325H2.2012ZM3.29767 11.5325H3.53158V11.2986H3.29767V11.5325ZM3.29767 12.6373V12.8712H3.53158V12.6373H3.29767ZM4.0314 12.6373H3.7975V12.8712H4.0314V12.6373ZM4.0314 11.5325V11.2986H3.7975V11.5325H4.0314ZM5.12788 11.5325H5.36179V11.2986H5.12788V11.5325ZM5.12788 12.6373V12.8712H5.36179V12.6373H5.12788ZM5.86161 12.6373H5.62771V12.8712H5.86161V12.6373ZM5.86161 11.5325V11.2986H5.62771V11.5325H5.86161ZM6.95809 11.5325H7.19199V11.2986H6.95809V11.5325ZM6.95809 12.6373V12.8712H7.19199V12.6373H6.95809ZM7.69182 10.7988H7.45792V11.0327H7.69182V10.7988ZM7.69182 9.70233V9.46842H7.45792V9.70233H7.69182ZM8.79654 9.70233H9.03045V9.46842H8.79654V9.70233ZM8.79654 10.7988V11.0327H9.03045V10.7988H8.79654ZM7.69182 8.9686H7.45792V9.2025H7.69182V8.9686ZM7.69182 7.87212V7.63821H7.45792V7.87212H7.69182ZM8.79654 7.87212H9.03045V7.63821H8.79654V7.87212ZM8.79654 8.9686V9.2025H9.03045V8.9686H8.79654ZM2.2012 7.13839H1.96729V7.37229H2.2012V7.13839ZM2.2012 6.04191V5.80801H1.96729V6.04191H2.2012ZM3.29767 6.04191H3.53158V5.80801H3.29767V6.04191ZM3.29767 7.13839V7.37229H3.53158V7.13839H3.29767ZM4.0314 7.13839H3.7975V7.37229H4.0314V7.13839ZM4.0314 6.04191V5.80801H3.7975V6.04191H4.0314ZM5.12788 6.04191H5.36179V5.80801H5.12788V6.04191ZM5.12788 7.13839V7.37229H5.36179V7.13839H5.12788ZM5.86161 7.13839H5.62771V7.37229H5.86161V7.13839ZM5.86161 6.04191V5.80801H5.62771V6.04191H5.86161ZM6.95809 6.04191H7.19199V5.80801H6.95809V6.04191ZM6.95809 7.13839V7.37229H7.19199V7.13839H6.95809ZM0.362744 5.30818H0.128838V5.54208H0.362744V5.30818ZM0.362744 4.20346V3.96955H0.128838V4.20346H0.362744ZM1.46746 4.20346H1.70137V3.96955H1.46746V4.20346ZM1.46746 5.30818V5.54208H1.70137V5.30818H1.46746ZM0.362744 3.46973H0.128838V3.70363H0.362744V3.46973ZM0.362744 2.37325V2.13935H0.128838V2.37325H0.362744ZM1.46746 2.37325H1.70137V2.13935H1.46746V2.37325ZM1.46746 3.46973V3.70363H1.70137V3.46973H1.46746ZM2.2012 1.63952H1.96729V1.87342H2.2012V1.63952ZM2.2012 0.543043V0.309137H1.96729V0.543043H2.2012ZM3.29767 0.543043H3.53158V0.309137H3.29767V0.543043ZM3.29767 1.63952V1.87342H3.53158V1.63952H3.29767ZM4.0314 1.63952H3.7975V1.87342H4.0314V1.63952ZM4.0314 0.543043V0.309137H3.7975V0.543043H4.0314ZM5.12788 0.543043H5.36179V0.309137H5.12788V0.543043ZM5.12788 1.63952V1.87342H5.36179V1.63952H5.12788ZM5.86161 1.63952H5.62771V1.87342H5.86161V1.63952ZM5.86161 0.543043V0.309137H5.62771V0.543043H5.86161ZM6.95809 0.543043H7.19199V0.309137H6.95809V0.543043ZM6.95809 1.63952V1.87342H7.19199V1.63952H6.95809ZM7.69182 1.63952H7.45792V1.87342H7.69182V1.63952ZM7.69182 0.543043V0.309137H7.45792V0.543043H7.69182ZM8.79654 0.543043H9.03045V0.309137H8.79654V0.543043ZM8.79654 1.63952V1.87342H9.03045V1.63952H8.79654ZM0.362744 12.6373H0.59665V11.5325H0.362744H0.128838V12.6373H0.362744ZM0.362744 11.5325V11.7664H1.46746V11.5325V11.2986H0.362744V11.5325ZM1.46746 11.5325H1.23356V12.6373H1.46746H1.70137V11.5325H1.46746ZM1.46746 12.6373V12.4034H0.362744V12.6373V12.8712H1.46746V12.6373ZM2.2012 12.6373H2.4351V11.5325H2.2012H1.96729V12.6373H2.2012ZM2.2012 11.5325V11.7664H3.29767V11.5325V11.2986H2.2012V11.5325ZM3.29767 11.5325H3.06377V12.6373H3.29767H3.53158V11.5325H3.29767ZM3.29767 12.6373V12.4034H2.2012V12.6373V12.8712H3.29767V12.6373ZM4.0314 12.6373H4.26531V11.5325H4.0314H3.7975V12.6373H4.0314ZM4.0314 11.5325V11.7664H5.12788V11.5325V11.2986H4.0314V11.5325ZM5.12788 11.5325H4.89398V12.6373H5.12788H5.36179V11.5325H5.12788ZM5.12788 12.6373V12.4034H4.0314V12.6373V12.8712H5.12788V12.6373ZM5.86161 12.6373H6.09552V11.5325H5.86161H5.62771V12.6373H5.86161ZM5.86161 11.5325V11.7664H6.95809V11.5325V11.2986H5.86161V11.5325ZM6.95809 11.5325H6.72418V12.6373H6.95809H7.19199V11.5325H6.95809ZM6.95809 12.6373V12.4034H5.86161V12.6373V12.8712H6.95809V12.6373ZM7.69182 10.7988H7.92573V9.70233H7.69182H7.45792V10.7988H7.69182ZM7.69182 9.70233V9.93623H8.79654V9.70233V9.46842H7.69182V9.70233ZM8.79654 9.70233H8.56264V10.7988H8.79654H9.03045V9.70233H8.79654ZM8.79654 10.7988V10.5649H7.69182V10.7988V11.0327H8.79654V10.7988ZM7.69182 8.9686H7.92573V7.87212H7.69182H7.45792V8.9686H7.69182ZM7.69182 7.87212V8.10602H8.79654V7.87212V7.63821H7.69182V7.87212ZM8.79654 7.87212H8.56264V8.9686H8.79654H9.03045V7.87212H8.79654ZM8.79654 8.9686V8.73469H7.69182V8.9686V9.2025H8.79654V8.9686ZM2.2012 7.13839H2.4351V6.04191H2.2012H1.96729V7.13839H2.2012ZM2.2012 6.04191V6.27582H3.29767V6.04191V5.80801H2.2012V6.04191ZM3.29767 6.04191H3.06377V7.13839H3.29767H3.53158V6.04191H3.29767ZM3.29767 7.13839V6.90448H2.2012V7.13839V7.37229H3.29767V7.13839ZM4.0314 7.13839H4.26531V6.04191H4.0314H3.7975V7.13839H4.0314ZM4.0314 6.04191V6.27582H5.12788V6.04191V5.80801H4.0314V6.04191ZM5.12788 6.04191H4.89398V7.13839H5.12788H5.36179V6.04191H5.12788ZM5.12788 7.13839V6.90448H4.0314V7.13839V7.37229H5.12788V7.13839ZM5.86161 7.13839H6.09552V6.04191H5.86161H5.62771V7.13839H5.86161ZM5.86161 6.04191V6.27582H6.95809V6.04191V5.80801H5.86161V6.04191ZM6.95809 6.04191H6.72418V7.13839H6.95809H7.19199V6.04191H6.95809ZM6.95809 7.13839V6.90448H5.86161V7.13839V7.37229H6.95809V7.13839ZM0.362744 5.30818H0.59665V4.20346H0.362744H0.128838V5.30818H0.362744ZM0.362744 4.20346V4.43736H1.46746V4.20346V3.96955H0.362744V4.20346ZM1.46746 4.20346H1.23356V5.30818H1.46746H1.70137V4.20346H1.46746ZM1.46746 5.30818V5.07427H0.362744V5.30818V5.54208H1.46746V5.30818ZM0.362744 3.46973H0.59665V2.37325H0.362744H0.128838V3.46973H0.362744ZM0.362744 2.37325V2.60716H1.46746V2.37325V2.13935H0.362744V2.37325ZM1.46746 2.37325H1.23356V3.46973H1.46746H1.70137V2.37325H1.46746ZM1.46746 3.46973V3.23582H0.362744V3.46973V3.70363H1.46746V3.46973ZM2.2012 1.63952H2.4351V0.543043H2.2012H1.96729V1.63952H2.2012ZM2.2012 0.543043V0.776948H3.29767V0.543043V0.309137H2.2012V0.543043ZM3.29767 0.543043H3.06377V1.63952H3.29767H3.53158V0.543043H3.29767ZM3.29767 1.63952V1.40561H2.2012V1.63952V1.87342H3.29767V1.63952ZM4.0314 1.63952H4.26531V0.543043H4.0314H3.7975V1.63952H4.0314ZM4.0314 0.543043V0.776948H5.12788V0.543043V0.309137H4.0314V0.543043ZM5.12788 0.543043H4.89398V1.63952H5.12788H5.36179V0.543043H5.12788ZM5.12788 1.63952V1.40561H4.0314V1.63952V1.87342H5.12788V1.63952ZM5.86161 1.63952H6.09552V0.543043H5.86161H5.62771V1.63952H5.86161ZM5.86161 0.543043V0.776948H6.95809V0.543043V0.309137H5.86161V0.543043ZM6.95809 0.543043H6.72418V1.63952H6.95809H7.19199V0.543043H6.95809ZM6.95809 1.63952V1.40561H5.86161V1.63952V1.87342H6.95809V1.63952ZM7.69182 1.63952H7.92573V0.543043H7.69182H7.45792V1.63952H7.69182ZM7.69182 0.543043V0.776948H8.79654V0.543043V0.309137H7.69182V0.543043ZM8.79654 0.543043H8.56264V1.63952H8.79654H9.03045V0.543043H8.79654ZM8.79654 1.63952V1.40561H7.69182V1.63952V1.87342H8.79654V1.63952ZM12.6881 12.6373H12.4541V12.8712H12.6881V12.6373ZM12.6881 11.5325V11.2986H12.4541V11.5325H12.6881ZM13.7845 11.5325H14.0184V11.2986H13.7845V11.5325ZM13.7845 12.6373V12.8712H14.0184V12.6373H13.7845ZM14.5183 12.6373H14.2844V12.8712H14.5183V12.6373ZM14.5183 11.5325V11.2986H14.2844V11.5325H14.5183ZM15.6147 11.5325H15.8486V11.2986H15.6147V11.5325ZM15.6147 12.6373V12.8712H15.8486V12.6373H15.6147ZM16.3485 12.6373H16.1146V12.8712H16.3485V12.6373ZM16.3485 11.5325V11.2986H16.1146V11.5325H16.3485ZM17.4449 11.5325H17.6788V11.2986H17.4449V11.5325ZM17.4449 12.6373V12.8712H17.6788V12.6373H17.4449ZM10.8496 10.7988H10.6157V11.0327H10.8496V10.7988ZM10.8496 9.70233V9.46842H10.6157V9.70233H10.8496ZM11.9543 9.70233H12.1882V9.46842H11.9543V9.70233ZM11.9543 10.7988V11.0327H12.1882V10.7988H11.9543ZM18.1787 10.7988H17.9448V11.0327H18.1787V10.7988ZM18.1787 9.70233V9.46842H17.9448V9.70233H18.1787ZM19.2834 9.70233H19.5173V9.46842H19.2834V9.70233ZM19.2834 10.7988V11.0327H19.5173V10.7988H19.2834ZM10.8496 8.9686H10.6157V9.2025H10.8496V8.9686ZM10.8496 7.87212V7.63821H10.6157V7.87212H10.8496ZM11.9543 7.87212H12.1882V7.63821H11.9543V7.87212ZM11.9543 8.9686V9.2025H12.1882V8.9686H11.9543ZM12.6881 8.9686H12.4541V9.2025H12.6881V8.9686ZM12.6881 7.87212V7.63821H12.4541V7.87212H12.6881ZM13.7845 7.87212H14.0184V7.63821H13.7845V7.87212ZM13.7845 8.9686V9.2025H14.0184V8.9686H13.7845ZM18.1787 8.9686H17.9448V9.2025H18.1787V8.9686ZM18.1787 7.87212V7.63821H17.9448V7.87212H18.1787ZM19.2834 7.87212H19.5173V7.63821H19.2834V7.87212ZM19.2834 8.9686V9.2025H19.5173V8.9686H19.2834ZM10.8496 7.13839H10.6157V7.37229H10.8496V7.13839ZM10.8496 6.04191V5.80801H10.6157V6.04191H10.8496ZM11.9543 6.04191H12.1882V5.80801H11.9543V6.04191ZM11.9543 7.13839V7.37229H12.1882V7.13839H11.9543ZM14.5183 7.13839H14.2844V7.37229H14.5183V7.13839ZM14.5183 6.04191V5.80801H14.2844V6.04191H14.5183ZM15.6147 6.04191H15.8486V5.80801H15.6147V6.04191ZM15.6147 7.13839V7.37229H15.8486V7.13839H15.6147ZM18.1787 7.13839H17.9448V7.37229H18.1787V7.13839ZM18.1787 6.04191V5.80801H17.9448V6.04191H18.1787ZM19.2834 6.04191H19.5173V5.80801H19.2834V6.04191ZM19.2834 7.13839V7.37229H19.5173V7.13839H19.2834ZM10.8496 5.30818H10.6157V5.54208H10.8496V5.30818ZM10.8496 4.20346V3.96955H10.6157V4.20346H10.8496ZM11.9543 4.20346H12.1882V3.96955H11.9543V4.20346ZM11.9543 5.30818V5.54208H12.1882V5.30818H11.9543ZM16.3485 5.30818H16.1146V5.54208H16.3485V5.30818ZM16.3485 4.20346V3.96955H16.1146V4.20346H16.3485ZM17.4449 4.20346H17.6788V3.96955H17.4449V4.20346ZM17.4449 5.30818V5.54208H17.6788V5.30818H17.4449ZM18.1787 5.30818H17.9448V5.54208H18.1787V5.30818ZM18.1787 4.20346V3.96955H17.9448V4.20346H18.1787ZM19.2834 4.20346H19.5173V3.96955H19.2834V4.20346ZM19.2834 5.30818V5.54208H19.5173V5.30818H19.2834ZM10.8496 3.46973H10.6157V3.70363H10.8496V3.46973ZM10.8496 2.37325V2.13935H10.6157V2.37325H10.8496ZM11.9543 2.37325H12.1882V2.13935H11.9543V2.37325ZM11.9543 3.46973V3.70363H12.1882V3.46973H11.9543ZM18.1787 3.46973H17.9448V3.70363H18.1787V3.46973ZM18.1787 2.37325V2.13935H17.9448V2.37325H18.1787ZM19.2834 2.37325H19.5173V2.13935H19.2834V2.37325ZM19.2834 3.46973V3.70363H19.5173V3.46973H19.2834ZM12.6881 1.63952H12.4541V1.87342H12.6881V1.63952ZM12.6881 0.543043V0.309137H12.4541V0.543043H12.6881ZM13.7845 0.543043H14.0184V0.309137H13.7845V0.543043ZM13.7845 1.63952V1.87342H14.0184V1.63952H13.7845ZM14.5183 1.63952H14.2844V1.87342H14.5183V1.63952ZM14.5183 0.543043V0.309137H14.2844V0.543043H14.5183ZM15.6147 0.543043H15.8486V0.309137H15.6147V0.543043ZM15.6147 1.63952V1.87342H15.8486V1.63952H15.6147ZM16.3485 1.63952H16.1146V1.87342H16.3485V1.63952ZM16.3485 0.543043V0.309137H16.1146V0.543043H16.3485ZM17.4449 0.543043H17.6788V0.309137H17.4449V0.543043ZM17.4449 1.63952V1.87342H17.6788V1.63952H17.4449ZM12.6881 12.6373H12.922V11.5325H12.6881H12.4541V12.6373H12.6881ZM12.6881 11.5325V11.7664H13.7845V11.5325V11.2986H12.6881V11.5325ZM13.7845 11.5325H13.5506V12.6373H13.7845H14.0184V11.5325H13.7845ZM13.7845 12.6373V12.4034H12.6881V12.6373V12.8712H13.7845V12.6373ZM14.5183 12.6373H14.7522V11.5325H14.5183H14.2844V12.6373H14.5183ZM14.5183 11.5325V11.7664H15.6147V11.5325V11.2986H14.5183V11.5325ZM15.6147 11.5325H15.3808V12.6373H15.6147H15.8486V11.5325H15.6147ZM15.6147 12.6373V12.4034H14.5183V12.6373V12.8712H15.6147V12.6373ZM16.3485 12.6373H16.5824V11.5325H16.3485H16.1146V12.6373H16.3485ZM16.3485 11.5325V11.7664H17.4449V11.5325V11.2986H16.3485V11.5325ZM17.4449 11.5325H17.211V12.6373H17.4449H17.6788V11.5325H17.4449ZM17.4449 12.6373V12.4034H16.3485V12.6373V12.8712H17.4449V12.6373ZM10.8496 10.7988H11.0835V9.70233H10.8496H10.6157V10.7988H10.8496ZM10.8496 9.70233V9.93623H11.9543V9.70233V9.46842H10.8496V9.70233ZM11.9543 9.70233H11.7204V10.7988H11.9543H12.1882V9.70233H11.9543ZM11.9543 10.7988V10.5649H10.8496V10.7988V11.0327H11.9543V10.7988ZM18.1787 10.7988H18.4126V9.70233H18.1787H17.9448V10.7988H18.1787ZM18.1787 9.70233V9.93623H19.2834V9.70233V9.46842H18.1787V9.70233ZM19.2834 9.70233H19.0495V10.7988H19.2834H19.5173V9.70233H19.2834ZM19.2834 10.7988V10.5649H18.1787V10.7988V11.0327H19.2834V10.7988ZM10.8496 8.9686H11.0835V7.87212H10.8496H10.6157V8.9686H10.8496ZM10.8496 7.87212V8.10602H11.9543V7.87212V7.63821H10.8496V7.87212ZM11.9543 7.87212H11.7204V8.9686H11.9543H12.1882V7.87212H11.9543ZM11.9543 8.9686V8.73469H10.8496V8.9686V9.2025H11.9543V8.9686ZM12.6881 8.9686H12.922V7.87212H12.6881H12.4541V8.9686H12.6881ZM12.6881 7.87212V8.10602H13.7845V7.87212V7.63821H12.6881V7.87212ZM13.7845 7.87212H13.5506V8.9686H13.7845H14.0184V7.87212H13.7845ZM13.7845 8.9686V8.73469H12.6881V8.9686V9.2025H13.7845V8.9686ZM18.1787 8.9686H18.4126V7.87212H18.1787H17.9448V8.9686H18.1787ZM18.1787 7.87212V8.10602H19.2834V7.87212V7.63821H18.1787V7.87212ZM19.2834 7.87212H19.0495V8.9686H19.2834H19.5173V7.87212H19.2834ZM19.2834 8.9686V8.73469H18.1787V8.9686V9.2025H19.2834V8.9686ZM10.8496 7.13839H11.0835V6.04191H10.8496H10.6157V7.13839H10.8496ZM10.8496 6.04191V6.27582H11.9543V6.04191V5.80801H10.8496V6.04191ZM11.9543 6.04191H11.7204V7.13839H11.9543H12.1882V6.04191H11.9543ZM11.9543 7.13839V6.90448H10.8496V7.13839V7.37229H11.9543V7.13839ZM14.5183 7.13839H14.7522V6.04191H14.5183H14.2844V7.13839H14.5183ZM14.5183 6.04191V6.27582H15.6147V6.04191V5.80801H14.5183V6.04191ZM15.6147 6.04191H15.3808V7.13839H15.6147H15.8486V6.04191H15.6147ZM15.6147 7.13839V6.90448H14.5183V7.13839V7.37229H15.6147V7.13839ZM18.1787 7.13839H18.4126V6.04191H18.1787H17.9448V7.13839H18.1787ZM18.1787 6.04191V6.27582H19.2834V6.04191V5.80801H18.1787V6.04191ZM19.2834 6.04191H19.0495V7.13839H19.2834H19.5173V6.04191H19.2834ZM19.2834 7.13839V6.90448H18.1787V7.13839V7.37229H19.2834V7.13839ZM10.8496 5.30818H11.0835V4.20346H10.8496H10.6157V5.30818H10.8496ZM10.8496 4.20346V4.43736H11.9543V4.20346V3.96955H10.8496V4.20346ZM11.9543 4.20346H11.7204V5.30818H11.9543H12.1882V4.20346H11.9543ZM11.9543 5.30818V5.07427H10.8496V5.30818V5.54208H11.9543V5.30818ZM16.3485 5.30818H16.5824V4.20346H16.3485H16.1146V5.30818H16.3485ZM16.3485 4.20346V4.43736H17.4449V4.20346V3.96955H16.3485V4.20346ZM17.4449 4.20346H17.211V5.30818H17.4449H17.6788V4.20346H17.4449ZM17.4449 5.30818V5.07427H16.3485V5.30818V5.54208H17.4449V5.30818ZM18.1787 5.30818H18.4126V4.20346H18.1787H17.9448V5.30818H18.1787ZM18.1787 4.20346V4.43736H19.2834V4.20346V3.96955H18.1787V4.20346ZM19.2834 4.20346H19.0495V5.30818H19.2834H19.5173V4.20346H19.2834ZM19.2834 5.30818V5.07427H18.1787V5.30818V5.54208H19.2834V5.30818ZM10.8496 3.46973H11.0835V2.37325H10.8496H10.6157V3.46973H10.8496ZM10.8496 2.37325V2.60716H11.9543V2.37325V2.13935H10.8496V2.37325ZM11.9543 2.37325H11.7204V3.46973H11.9543H12.1882V2.37325H11.9543ZM11.9543 3.46973V3.23582H10.8496V3.46973V3.70363H11.9543V3.46973ZM18.1787 3.46973H18.4126V2.37325H18.1787H17.9448V3.46973H18.1787ZM18.1787 2.37325V2.60716H19.2834V2.37325V2.13935H18.1787V2.37325ZM19.2834 2.37325H19.0495V3.46973H19.2834H19.5173V2.37325H19.2834ZM19.2834 3.46973V3.23582H18.1787V3.46973V3.70363H19.2834V3.46973ZM12.6881 1.63952H12.922V0.543043H12.6881H12.4541V1.63952H12.6881ZM12.6881 0.543043V0.776948H13.7845V0.543043V0.309137H12.6881V0.543043ZM13.7845 0.543043H13.5506V1.63952H13.7845H14.0184V0.543043H13.7845ZM13.7845 1.63952V1.40561H12.6881V1.63952V1.87342H13.7845V1.63952ZM14.5183 1.63952H14.7522V0.543043H14.5183H14.2844V1.63952H14.5183ZM14.5183 0.543043V0.776948H15.6147V0.543043V0.309137H14.5183V0.543043ZM15.6147 0.543043H15.3808V1.63952H15.6147H15.8486V0.543043H15.6147ZM15.6147 1.63952V1.40561H14.5183V1.63952V1.87342H15.6147V1.63952ZM16.3485 1.63952H16.5824V0.543043H16.3485H16.1146V1.63952H16.3485ZM16.3485 0.543043V0.776948H17.4449V0.543043V0.309137H16.3485V0.543043ZM17.4449 0.543043H17.211V1.63952H17.4449H17.6788V0.543043H17.4449ZM17.4449 1.63952V1.40561H16.3485V1.63952V1.87342H17.4449V1.63952ZM0.362744 29.6373H0.128838V29.8712H0.362744V29.6373ZM0.362744 28.5325V28.2986H0.128838V28.5325H0.362744ZM1.46746 28.5325H1.70137V28.2986H1.46746V28.5325ZM1.46746 29.6373V29.8712H1.70137V29.6373H1.46746ZM7.69182 29.6373H7.45792V29.8712H7.69182V29.6373ZM7.69182 28.5325V28.2986H7.45792V28.5325H7.69182ZM8.79654 28.5325H9.03045V28.2986H8.79654V28.5325ZM8.79654 29.6373V29.8712H9.03045V29.6373H8.79654ZM0.362744 27.7988H0.128838V28.0327H0.362744V27.7988ZM0.362744 26.7023V26.4684H0.128838V26.7023H0.362744ZM1.46746 26.7023H1.70137V26.4684H1.46746V26.7023ZM1.46746 27.7988V28.0327H1.70137V27.7988H1.46746ZM7.69182 27.7988H7.45792V28.0327H7.69182V27.7988ZM7.69182 26.7023V26.4684H7.45792V26.7023H7.69182ZM8.79654 26.7023H9.03045V26.4684H8.79654V26.7023ZM8.79654 27.7988V28.0327H9.03045V27.7988H8.79654ZM0.362744 25.9686H0.128838V26.2025H0.362744V25.9686ZM0.362744 24.8721V24.6382H0.128838V24.8721H0.362744ZM1.46746 24.8721H1.70137V24.6382H1.46746V24.8721ZM1.46746 25.9686V26.2025H1.70137V25.9686H1.46746ZM7.69182 25.9686H7.45792V26.2025H7.69182V25.9686ZM7.69182 24.8721V24.6382H7.45792V24.8721H7.69182ZM8.79654 24.8721H9.03045V24.6382H8.79654V24.8721ZM8.79654 25.9686V26.2025H9.03045V25.9686H8.79654ZM0.362744 24.1384H0.128838V24.3723H0.362744V24.1384ZM0.362744 23.0419V22.808H0.128838V23.0419H0.362744ZM1.46746 23.0419H1.70137V22.808H1.46746V23.0419ZM1.46746 24.1384V24.3723H1.70137V24.1384H1.46746ZM4.0314 24.1384H3.7975V24.3723H4.0314V24.1384ZM4.0314 23.0419V22.808H3.7975V23.0419H4.0314ZM5.12788 23.0419H5.36179V22.808H5.12788V23.0419ZM5.12788 24.1384V24.3723H5.36179V24.1384H5.12788ZM7.69182 24.1384H7.45792V24.3723H7.69182V24.1384ZM7.69182 23.0419V22.808H7.45792V23.0419H7.69182ZM8.79654 23.0419H9.03045V22.808H8.79654V23.0419ZM8.79654 24.1384V24.3723H9.03045V24.1384H8.79654ZM0.362744 22.3082H0.128838V22.5421H0.362744V22.3082ZM0.362744 21.2035V20.9696H0.128838V21.2035H0.362744ZM1.46746 21.2035H1.70137V20.9696H1.46746V21.2035ZM1.46746 22.3082V22.5421H1.70137V22.3082H1.46746ZM4.0314 22.3082H3.7975V22.5421H4.0314V22.3082ZM4.0314 21.2035V20.9696H3.7975V21.2035H4.0314ZM5.12788 21.2035H5.36179V20.9696H5.12788V21.2035ZM5.12788 22.3082V22.5421H5.36179V22.3082H5.12788ZM7.69182 22.3082H7.45792V22.5421H7.69182V22.3082ZM7.69182 21.2035V20.9696H7.45792V21.2035H7.69182ZM8.79654 21.2035H9.03045V20.9696H8.79654V21.2035ZM8.79654 22.3082V22.5421H9.03045V22.3082H8.79654ZM0.362744 20.4697H0.128838V20.7036H0.362744V20.4697ZM0.362744 19.3733V19.1393H0.128838V19.3733H0.362744ZM1.46746 19.3733H1.70137V19.1393H1.46746V19.3733ZM1.46746 20.4697V20.7036H1.70137V20.4697H1.46746ZM2.2012 20.4697H1.96729V20.7036H2.2012V20.4697ZM2.2012 19.3733V19.1393H1.96729V19.3733H2.2012ZM3.29767 19.3733H3.53158V19.1393H3.29767V19.3733ZM3.29767 20.4697V20.7036H3.53158V20.4697H3.29767ZM5.86161 20.4697H5.62771V20.7036H5.86161V20.4697ZM5.86161 19.3733V19.1393H5.62771V19.3733H5.86161ZM6.95809 19.3733H7.19199V19.1393H6.95809V19.3733ZM6.95809 20.4697V20.7036H7.19199V20.4697H6.95809ZM7.69182 20.4697H7.45792V20.7036H7.69182V20.4697ZM7.69182 19.3733V19.1393H7.45792V19.3733H7.69182ZM8.79654 19.3733H9.03045V19.1393H8.79654V19.3733ZM8.79654 20.4697V20.7036H9.03045V20.4697H8.79654ZM0.362744 18.6395H0.128838V18.8734H0.362744V18.6395ZM0.362744 17.543V17.3091H0.128838V17.543H0.362744ZM1.46746 17.543H1.70137V17.3091H1.46746V17.543ZM1.46746 18.6395V18.8734H1.70137V18.6395H1.46746ZM7.69182 18.6395H7.45792V18.8734H7.69182V18.6395ZM7.69182 17.543V17.3091H7.45792V17.543H7.69182ZM8.79654 17.543H9.03045V17.3091H8.79654V17.543ZM8.79654 18.6395V18.8734H9.03045V18.6395H8.79654ZM0.362744 29.6373H0.59665V28.5325H0.362744H0.128838V29.6373H0.362744ZM0.362744 28.5325V28.7664H1.46746V28.5325V28.2986H0.362744V28.5325ZM1.46746 28.5325H1.23356V29.6373H1.46746H1.70137V28.5325H1.46746ZM1.46746 29.6373V29.4034H0.362744V29.6373V29.8712H1.46746V29.6373ZM7.69182 29.6373H7.92573V28.5325H7.69182H7.45792V29.6373H7.69182ZM7.69182 28.5325V28.7664H8.79654V28.5325V28.2986H7.69182V28.5325ZM8.79654 28.5325H8.56264V29.6373H8.79654H9.03045V28.5325H8.79654ZM8.79654 29.6373V29.4034H7.69182V29.6373V29.8712H8.79654V29.6373ZM0.362744 27.7988H0.59665V26.7023H0.362744H0.128838V27.7988H0.362744ZM0.362744 26.7023V26.9362H1.46746V26.7023V26.4684H0.362744V26.7023ZM1.46746 26.7023H1.23356V27.7988H1.46746H1.70137V26.7023H1.46746ZM1.46746 27.7988V27.5649H0.362744V27.7988V28.0327H1.46746V27.7988ZM7.69182 27.7988H7.92573V26.7023H7.69182H7.45792V27.7988H7.69182ZM7.69182 26.7023V26.9362H8.79654V26.7023V26.4684H7.69182V26.7023ZM8.79654 26.7023H8.56264V27.7988H8.79654H9.03045V26.7023H8.79654ZM8.79654 27.7988V27.5649H7.69182V27.7988V28.0327H8.79654V27.7988ZM0.362744 25.9686H0.59665V24.8721H0.362744H0.128838V25.9686H0.362744ZM0.362744 24.8721V25.106H1.46746V24.8721V24.6382H0.362744V24.8721ZM1.46746 24.8721H1.23356V25.9686H1.46746H1.70137V24.8721H1.46746ZM1.46746 25.9686V25.7347H0.362744V25.9686V26.2025H1.46746V25.9686ZM7.69182 25.9686H7.92573V24.8721H7.69182H7.45792V25.9686H7.69182ZM7.69182 24.8721V25.106H8.79654V24.8721V24.6382H7.69182V24.8721ZM8.79654 24.8721H8.56264V25.9686H8.79654H9.03045V24.8721H8.79654ZM8.79654 25.9686V25.7347H7.69182V25.9686V26.2025H8.79654V25.9686ZM0.362744 24.1384H0.59665V23.0419H0.362744H0.128838V24.1384H0.362744ZM0.362744 23.0419V23.2758H1.46746V23.0419V22.808H0.362744V23.0419ZM1.46746 23.0419H1.23356V24.1384H1.46746H1.70137V23.0419H1.46746ZM1.46746 24.1384V23.9045H0.362744V24.1384V24.3723H1.46746V24.1384ZM4.0314 24.1384H4.26531V23.0419H4.0314H3.7975V24.1384H4.0314ZM4.0314 23.0419V23.2758H5.12788V23.0419V22.808H4.0314V23.0419ZM5.12788 23.0419H4.89398V24.1384H5.12788H5.36179V23.0419H5.12788ZM5.12788 24.1384V23.9045H4.0314V24.1384V24.3723H5.12788V24.1384ZM7.69182 24.1384H7.92573V23.0419H7.69182H7.45792V24.1384H7.69182ZM7.69182 23.0419V23.2758H8.79654V23.0419V22.808H7.69182V23.0419ZM8.79654 23.0419H8.56264V24.1384H8.79654H9.03045V23.0419H8.79654ZM8.79654 24.1384V23.9045H7.69182V24.1384V24.3723H8.79654V24.1384ZM0.362744 22.3082H0.59665V21.2035H0.362744H0.128838V22.3082H0.362744ZM0.362744 21.2035V21.4374H1.46746V21.2035V20.9696H0.362744V21.2035ZM1.46746 21.2035H1.23356V22.3082H1.46746H1.70137V21.2035H1.46746ZM1.46746 22.3082V22.0743H0.362744V22.3082V22.5421H1.46746V22.3082ZM4.0314 22.3082H4.26531V21.2035H4.0314H3.7975V22.3082H4.0314ZM4.0314 21.2035V21.4374H5.12788V21.2035V20.9696H4.0314V21.2035ZM5.12788 21.2035H4.89398V22.3082H5.12788H5.36179V21.2035H5.12788ZM5.12788 22.3082V22.0743H4.0314V22.3082V22.5421H5.12788V22.3082ZM7.69182 22.3082H7.92573V21.2035H7.69182H7.45792V22.3082H7.69182ZM7.69182 21.2035V21.4374H8.79654V21.2035V20.9696H7.69182V21.2035ZM8.79654 21.2035H8.56264V22.3082H8.79654H9.03045V21.2035H8.79654ZM8.79654 22.3082V22.0743H7.69182V22.3082V22.5421H8.79654V22.3082ZM0.362744 20.4697H0.59665V19.3733H0.362744H0.128838V20.4697H0.362744ZM0.362744 19.3733V19.6072H1.46746V19.3733V19.1393H0.362744V19.3733ZM1.46746 19.3733H1.23356V20.4697H1.46746H1.70137V19.3733H1.46746ZM1.46746 20.4697V20.2358H0.362744V20.4697V20.7036H1.46746V20.4697ZM2.2012 20.4697H2.4351V19.3733H2.2012H1.96729V20.4697H2.2012ZM2.2012 19.3733V19.6072H3.29767V19.3733V19.1393H2.2012V19.3733ZM3.29767 19.3733H3.06377V20.4697H3.29767H3.53158V19.3733H3.29767ZM3.29767 20.4697V20.2358H2.2012V20.4697V20.7036H3.29767V20.4697ZM5.86161 20.4697H6.09552V19.3733H5.86161H5.62771V20.4697H5.86161ZM5.86161 19.3733V19.6072H6.95809V19.3733V19.1393H5.86161V19.3733ZM6.95809 19.3733H6.72418V20.4697H6.95809H7.19199V19.3733H6.95809ZM6.95809 20.4697V20.2358H5.86161V20.4697V20.7036H6.95809V20.4697ZM7.69182 20.4697H7.92573V19.3733H7.69182H7.45792V20.4697H7.69182ZM7.69182 19.3733V19.6072H8.79654V19.3733V19.1393H7.69182V19.3733ZM8.79654 19.3733H8.56264V20.4697H8.79654H9.03045V19.3733H8.79654ZM8.79654 20.4697V20.2358H7.69182V20.4697V20.7036H8.79654V20.4697ZM0.362744 18.6395H0.59665V17.543H0.362744H0.128838V18.6395H0.362744ZM0.362744 17.543V17.7769H1.46746V17.543V17.3091H0.362744V17.543ZM1.46746 17.543H1.23356V18.6395H1.46746H1.70137V17.543H1.46746ZM1.46746 18.6395V18.4056H0.362744V18.6395V18.8734H1.46746V18.6395ZM7.69182 18.6395H7.92573V17.543H7.69182H7.45792V18.6395H7.69182ZM7.69182 17.543V17.7769H8.79654V17.543V17.3091H7.69182V17.543ZM8.79654 17.543H8.56264V18.6395H8.79654H9.03045V17.543H8.79654ZM8.79654 18.6395V18.4056H7.69182V18.6395V18.8734H8.79654V18.6395ZM10.8496 29.6373H10.6157V29.8712H10.8496V29.6373ZM10.8496 28.5325V28.2986H10.6157V28.5325H10.8496ZM11.9543 28.5325H12.1882V28.2986H11.9543V28.5325ZM11.9543 29.6373V29.8712H12.1882V29.6373H11.9543ZM12.6881 29.6373H12.4541V29.8712H12.6881V29.6373ZM12.6881 28.5325V28.2986H12.4541V28.5325H12.6881ZM13.7845 28.5325H14.0184V28.2986H13.7845V28.5325ZM13.7845 29.6373V29.8712H14.0184V29.6373H13.7845ZM14.5183 29.6373H14.2844V29.8712H14.5183V29.6373ZM14.5183 28.5325V28.2986H14.2844V28.5325H14.5183ZM15.6147 28.5325H15.8486V28.2986H15.6147V28.5325ZM15.6147 29.6373V29.8712H15.8486V29.6373H15.6147ZM16.3485 29.6373H16.1146V29.8712H16.3485V29.6373ZM16.3485 28.5325V28.2986H16.1146V28.5325H16.3485ZM17.4449 28.5325H17.6788V28.2986H17.4449V28.5325ZM17.4449 29.6373V29.8712H17.6788V29.6373H17.4449ZM18.1787 29.6373H17.9448V29.8712H18.1787V29.6373ZM18.1787 28.5325V28.2986H17.9448V28.5325H18.1787ZM19.2834 28.5325H19.5173V28.2986H19.2834V28.5325ZM19.2834 29.6373V29.8712H19.5173V29.6373H19.2834ZM10.8496 27.7988H10.6157V28.0327H10.8496V27.7988ZM10.8496 26.7023V26.4684H10.6157V26.7023H10.8496ZM11.9543 26.7023H12.1882V26.4684H11.9543V26.7023ZM11.9543 27.7988V28.0327H12.1882V27.7988H11.9543ZM10.8496 25.9686H10.6157V26.2025H10.8496V25.9686ZM10.8496 24.8721V24.6382H10.6157V24.8721H10.8496ZM11.9543 24.8721H12.1882V24.6382H11.9543V24.8721ZM11.9543 25.9686V26.2025H12.1882V25.9686H11.9543ZM10.8496 24.1384H10.6157V24.3723H10.8496V24.1384ZM10.8496 23.0419V22.808H10.6157V23.0419H10.8496ZM11.9543 23.0419H12.1882V22.808H11.9543V23.0419ZM11.9543 24.1384V24.3723H12.1882V24.1384H11.9543ZM12.6881 24.1384H12.4541V24.3723H12.6881V24.1384ZM12.6881 23.0419V22.808H12.4541V23.0419H12.6881ZM13.7845 23.0419H14.0184V22.808H13.7845V23.0419ZM13.7845 24.1384V24.3723H14.0184V24.1384H13.7845ZM14.5183 24.1384H14.2844V24.3723H14.5183V24.1384ZM14.5183 23.0419V22.808H14.2844V23.0419H14.5183ZM15.6147 23.0419H15.8486V22.808H15.6147V23.0419ZM15.6147 24.1384V24.3723H15.8486V24.1384H15.6147ZM16.3485 24.1384H16.1146V24.3723H16.3485V24.1384ZM16.3485 23.0419V22.808H16.1146V23.0419H16.3485ZM17.4449 23.0419H17.6788V22.808H17.4449V23.0419ZM17.4449 24.1384V24.3723H17.6788V24.1384H17.4449ZM10.8496 22.3082H10.6157V22.5421H10.8496V22.3082ZM10.8496 21.2035V20.9696H10.6157V21.2035H10.8496ZM11.9543 21.2035H12.1882V20.9696H11.9543V21.2035ZM11.9543 22.3082V22.5421H12.1882V22.3082H11.9543ZM10.8496 20.4697H10.6157V20.7036H10.8496V20.4697ZM10.8496 19.3733V19.1393H10.6157V19.3733H10.8496ZM11.9543 19.3733H12.1882V19.1393H11.9543V19.3733ZM11.9543 20.4697V20.7036H12.1882V20.4697H11.9543ZM10.8496 18.6395H10.6157V18.8734H10.8496V18.6395ZM10.8496 17.543V17.3091H10.6157V17.543H10.8496ZM11.9543 17.543H12.1882V17.3091H11.9543V17.543ZM11.9543 18.6395V18.8734H12.1882V18.6395H11.9543ZM12.6881 18.6395H12.4541V18.8734H12.6881V18.6395ZM12.6881 17.543V17.3091H12.4541V17.543H12.6881ZM13.7845 17.543H14.0184V17.3091H13.7845V17.543ZM13.7845 18.6395V18.8734H14.0184V18.6395H13.7845ZM14.5183 18.6395H14.2844V18.8734H14.5183V18.6395ZM14.5183 17.543V17.3091H14.2844V17.543H14.5183ZM15.6147 17.543H15.8486V17.3091H15.6147V17.543ZM15.6147 18.6395V18.8734H15.8486V18.6395H15.6147ZM16.3485 18.6395H16.1146V18.8734H16.3485V18.6395ZM16.3485 17.543V17.3091H16.1146V17.543H16.3485ZM17.4449 17.543H17.6788V17.3091H17.4449V17.543ZM17.4449 18.6395V18.8734H17.6788V18.6395H17.4449ZM18.1787 18.6395H17.9448V18.8734H18.1787V18.6395ZM18.1787 17.543V17.3091H17.9448V17.543H18.1787ZM19.2834 17.543H19.5173V17.3091H19.2834V17.543ZM19.2834 18.6395V18.8734H19.5173V18.6395H19.2834ZM10.8496 29.6373H11.0835V28.5325H10.8496H10.6157V29.6373H10.8496ZM10.8496 28.5325V28.7664H11.9543V28.5325V28.2986H10.8496V28.5325ZM11.9543 28.5325H11.7204V29.6373H11.9543H12.1882V28.5325H11.9543ZM11.9543 29.6373V29.4034H10.8496V29.6373V29.8712H11.9543V29.6373ZM12.6881 29.6373H12.922V28.5325H12.6881H12.4541V29.6373H12.6881ZM12.6881 28.5325V28.7664H13.7845V28.5325V28.2986H12.6881V28.5325ZM13.7845 28.5325H13.5506V29.6373H13.7845H14.0184V28.5325H13.7845ZM13.7845 29.6373V29.4034H12.6881V29.6373V29.8712H13.7845V29.6373ZM14.5183 29.6373H14.7522V28.5325H14.5183H14.2844V29.6373H14.5183ZM14.5183 28.5325V28.7664H15.6147V28.5325V28.2986H14.5183V28.5325ZM15.6147 28.5325H15.3808V29.6373H15.6147H15.8486V28.5325H15.6147ZM15.6147 29.6373V29.4034H14.5183V29.6373V29.8712H15.6147V29.6373ZM16.3485 29.6373H16.5824V28.5325H16.3485H16.1146V29.6373H16.3485ZM16.3485 28.5325V28.7664H17.4449V28.5325V28.2986H16.3485V28.5325ZM17.4449 28.5325H17.211V29.6373H17.4449H17.6788V28.5325H17.4449ZM17.4449 29.6373V29.4034H16.3485V29.6373V29.8712H17.4449V29.6373ZM18.1787 29.6373H18.4126V28.5325H18.1787H17.9448V29.6373H18.1787ZM18.1787 28.5325V28.7664H19.2834V28.5325V28.2986H18.1787V28.5325ZM19.2834 28.5325H19.0495V29.6373H19.2834H19.5173V28.5325H19.2834ZM19.2834 29.6373V29.4034H18.1787V29.6373V29.8712H19.2834V29.6373ZM10.8496 27.7988H11.0835V26.7023H10.8496H10.6157V27.7988H10.8496ZM10.8496 26.7023V26.9362H11.9543V26.7023V26.4684H10.8496V26.7023ZM11.9543 26.7023H11.7204V27.7988H11.9543H12.1882V26.7023H11.9543ZM11.9543 27.7988V27.5649H10.8496V27.7988V28.0327H11.9543V27.7988ZM10.8496 25.9686H11.0835V24.8721H10.8496H10.6157V25.9686H10.8496ZM10.8496 24.8721V25.106H11.9543V24.8721V24.6382H10.8496V24.8721ZM11.9543 24.8721H11.7204V25.9686H11.9543H12.1882V24.8721H11.9543ZM11.9543 25.9686V25.7347H10.8496V25.9686V26.2025H11.9543V25.9686ZM10.8496 24.1384H11.0835V23.0419H10.8496H10.6157V24.1384H10.8496ZM10.8496 23.0419V23.2758H11.9543V23.0419V22.808H10.8496V23.0419ZM11.9543 23.0419H11.7204V24.1384H11.9543H12.1882V23.0419H11.9543ZM11.9543 24.1384V23.9045H10.8496V24.1384V24.3723H11.9543V24.1384ZM12.6881 24.1384H12.922V23.0419H12.6881H12.4541V24.1384H12.6881ZM12.6881 23.0419V23.2758H13.7845V23.0419V22.808H12.6881V23.0419ZM13.7845 23.0419H13.5506V24.1384H13.7845H14.0184V23.0419H13.7845ZM13.7845 24.1384V23.9045H12.6881V24.1384V24.3723H13.7845V24.1384ZM14.5183 24.1384H14.7522V23.0419H14.5183H14.2844V24.1384H14.5183ZM14.5183 23.0419V23.2758H15.6147V23.0419V22.808H14.5183V23.0419ZM15.6147 23.0419H15.3808V24.1384H15.6147H15.8486V23.0419H15.6147ZM15.6147 24.1384V23.9045H14.5183V24.1384V24.3723H15.6147V24.1384ZM16.3485 24.1384H16.5824V23.0419H16.3485H16.1146V24.1384H16.3485ZM16.3485 23.0419V23.2758H17.4449V23.0419V22.808H16.3485V23.0419ZM17.4449 23.0419H17.211V24.1384H17.4449H17.6788V23.0419H17.4449ZM17.4449 24.1384V23.9045H16.3485V24.1384V24.3723H17.4449V24.1384ZM10.8496 22.3082H11.0835V21.2035H10.8496H10.6157V22.3082H10.8496ZM10.8496 21.2035V21.4374H11.9543V21.2035V20.9696H10.8496V21.2035ZM11.9543 21.2035H11.7204V22.3082H11.9543H12.1882V21.2035H11.9543ZM11.9543 22.3082V22.0743H10.8496V22.3082V22.5421H11.9543V22.3082ZM10.8496 20.4697H11.0835V19.3733H10.8496H10.6157V20.4697H10.8496ZM10.8496 19.3733V19.6072H11.9543V19.3733V19.1393H10.8496V19.3733ZM11.9543 19.3733H11.7204V20.4697H11.9543H12.1882V19.3733H11.9543ZM11.9543 20.4697V20.2358H10.8496V20.4697V20.7036H11.9543V20.4697ZM10.8496 18.6395H11.0835V17.543H10.8496H10.6157V18.6395H10.8496ZM10.8496 17.543V17.7769H11.9543V17.543V17.3091H10.8496V17.543ZM11.9543 17.543H11.7204V18.6395H11.9543H12.1882V17.543H11.9543ZM11.9543 18.6395V18.4056H10.8496V18.6395V18.8734H11.9543V18.6395ZM12.6881 18.6395H12.922V17.543H12.6881H12.4541V18.6395H12.6881ZM12.6881 17.543V17.7769H13.7845V17.543V17.3091H12.6881V17.543ZM13.7845 17.543H13.5506V18.6395H13.7845H14.0184V17.543H13.7845ZM13.7845 18.6395V18.4056H12.6881V18.6395V18.8734H13.7845V18.6395ZM14.5183 18.6395H14.7522V17.543H14.5183H14.2844V18.6395H14.5183ZM14.5183 17.543V17.7769H15.6147V17.543V17.3091H14.5183V17.543ZM15.6147 17.543H15.3808V18.6395H15.6147H15.8486V17.543H15.6147ZM15.6147 18.6395V18.4056H14.5183V18.6395V18.8734H15.6147V18.6395ZM16.3485 18.6395H16.5824V17.543H16.3485H16.1146V18.6395H16.3485ZM16.3485 17.543V17.7769H17.4449V17.543V17.3091H16.3485V17.543ZM17.4449 17.543H17.211V18.6395H17.4449H17.6788V17.543H17.4449ZM17.4449 18.6395V18.4056H16.3485V18.6395V18.8734H17.4449V18.6395ZM18.1787 18.6395H18.4126V17.543H18.1787H17.9448V18.6395H18.1787ZM18.1787 17.543V17.7769H19.2834V17.543V17.3091H18.1787V17.543ZM19.2834 17.543H19.0495V18.6395H19.2834H19.5173V17.543H19.2834ZM19.2834 18.6395V18.4056H18.1787V18.6395V18.8734H19.2834V18.6395ZM0.362744 46.6373H0.128838V46.8712H0.362744V46.6373ZM0.362744 45.5325V45.2986H0.128838V45.5325H0.362744ZM1.46746 45.5325H1.70137V45.2986H1.46746V45.5325ZM1.46746 46.6373V46.8712H1.70137V46.6373H1.46746ZM2.2012 46.6373H1.96729V46.8712H2.2012V46.6373ZM2.2012 45.5325V45.2986H1.96729V45.5325H2.2012ZM3.29767 45.5325H3.53158V45.2986H3.29767V45.5325ZM3.29767 46.6373V46.8712H3.53158V46.6373H3.29767ZM4.0314 46.6373H3.7975V46.8712H4.0314V46.6373ZM4.0314 45.5325V45.2986H3.7975V45.5325H4.0314ZM5.12788 45.5325H5.36179V45.2986H5.12788V45.5325ZM5.12788 46.6373V46.8712H5.36179V46.6373H5.12788ZM5.86161 46.6373H5.62771V46.8712H5.86161V46.6373ZM5.86161 45.5325V45.2986H5.62771V45.5325H5.86161ZM6.95809 45.5325H7.19199V45.2986H6.95809V45.5325ZM6.95809 46.6373V46.8712H7.19199V46.6373H6.95809ZM7.69182 46.6373H7.45792V46.8712H7.69182V46.6373ZM7.69182 45.5325V45.2986H7.45792V45.5325H7.69182ZM8.79654 45.5325H9.03045V45.2986H8.79654V45.5325ZM8.79654 46.6373V46.8712H9.03045V46.6373H8.79654ZM4.0314 44.7988H3.7975V45.0327H4.0314V44.7988ZM4.0314 43.7023V43.4684H3.7975V43.7023H4.0314ZM5.12788 43.7023H5.36179V43.4684H5.12788V43.7023ZM5.12788 44.7988V45.0327H5.36179V44.7988H5.12788ZM4.0314 42.9686H3.7975V43.2025H4.0314V42.9686ZM4.0314 41.8721V41.6382H3.7975V41.8721H4.0314ZM5.12788 41.8721H5.36179V41.6382H5.12788V41.8721ZM5.12788 42.9686V43.2025H5.36179V42.9686H5.12788ZM4.0314 41.1384H3.7975V41.3723H4.0314V41.1384ZM4.0314 40.0419V39.808H3.7975V40.0419H4.0314ZM5.12788 40.0419H5.36179V39.808H5.12788V40.0419ZM5.12788 41.1384V41.3723H5.36179V41.1384H5.12788ZM4.0314 39.3082H3.7975V39.5421H4.0314V39.3082ZM4.0314 38.2035V37.9696H3.7975V38.2035H4.0314ZM5.12788 38.2035H5.36179V37.9696H5.12788V38.2035ZM5.12788 39.3082V39.5421H5.36179V39.3082H5.12788ZM0.362744 37.4697H0.128838V37.7036H0.362744V37.4697ZM0.362744 36.3733V36.1393H0.128838V36.3733H0.362744ZM1.46746 36.3733H1.70137V36.1393H1.46746V36.3733ZM1.46746 37.4697V37.7036H1.70137V37.4697H1.46746ZM2.2012 37.4697H1.96729V37.7036H2.2012V37.4697ZM2.2012 36.3733V36.1393H1.96729V36.3733H2.2012ZM3.29767 36.3733H3.53158V36.1393H3.29767V36.3733ZM3.29767 37.4697V37.7036H3.53158V37.4697H3.29767ZM4.0314 37.4697H3.7975V37.7036H4.0314V37.4697ZM4.0314 36.3733V36.1393H3.7975V36.3733H4.0314ZM5.12788 36.3733H5.36179V36.1393H5.12788V36.3733ZM5.12788 37.4697V37.7036H5.36179V37.4697H5.12788ZM4.0314 35.6395H3.7975V35.8734H4.0314V35.6395ZM4.0314 34.543V34.3091H3.7975V34.543H4.0314ZM5.12788 34.543H5.36179V34.3091H5.12788V34.543ZM5.12788 35.6395V35.8734H5.36179V35.6395H5.12788ZM0.362744 46.6373H0.59665V45.5325H0.362744H0.128838V46.6373H0.362744ZM0.362744 45.5325V45.7664H1.46746V45.5325V45.2986H0.362744V45.5325ZM1.46746 45.5325H1.23356V46.6373H1.46746H1.70137V45.5325H1.46746ZM1.46746 46.6373V46.4034H0.362744V46.6373V46.8712H1.46746V46.6373ZM2.2012 46.6373H2.4351V45.5325H2.2012H1.96729V46.6373H2.2012ZM2.2012 45.5325V45.7664H3.29767V45.5325V45.2986H2.2012V45.5325ZM3.29767 45.5325H3.06377V46.6373H3.29767H3.53158V45.5325H3.29767ZM3.29767 46.6373V46.4034H2.2012V46.6373V46.8712H3.29767V46.6373ZM4.0314 46.6373H4.26531V45.5325H4.0314H3.7975V46.6373H4.0314ZM4.0314 45.5325V45.7664H5.12788V45.5325V45.2986H4.0314V45.5325ZM5.12788 45.5325H4.89398V46.6373H5.12788H5.36179V45.5325H5.12788ZM5.12788 46.6373V46.4034H4.0314V46.6373V46.8712H5.12788V46.6373ZM5.86161 46.6373H6.09552V45.5325H5.86161H5.62771V46.6373H5.86161ZM5.86161 45.5325V45.7664H6.95809V45.5325V45.2986H5.86161V45.5325ZM6.95809 45.5325H6.72418V46.6373H6.95809H7.19199V45.5325H6.95809ZM6.95809 46.6373V46.4034H5.86161V46.6373V46.8712H6.95809V46.6373ZM7.69182 46.6373H7.92573V45.5325H7.69182H7.45792V46.6373H7.69182ZM7.69182 45.5325V45.7664H8.79654V45.5325V45.2986H7.69182V45.5325ZM8.79654 45.5325H8.56264V46.6373H8.79654H9.03045V45.5325H8.79654ZM8.79654 46.6373V46.4034H7.69182V46.6373V46.8712H8.79654V46.6373ZM4.0314 44.7988H4.26531V43.7023H4.0314H3.7975V44.7988H4.0314ZM4.0314 43.7023V43.9362H5.12788V43.7023V43.4684H4.0314V43.7023ZM5.12788 43.7023H4.89398V44.7988H5.12788H5.36179V43.7023H5.12788ZM5.12788 44.7988V44.5649H4.0314V44.7988V45.0327H5.12788V44.7988ZM4.0314 42.9686H4.26531V41.8721H4.0314H3.7975V42.9686H4.0314ZM4.0314 41.8721V42.106H5.12788V41.8721V41.6382H4.0314V41.8721ZM5.12788 41.8721H4.89398V42.9686H5.12788H5.36179V41.8721H5.12788ZM5.12788 42.9686V42.7347H4.0314V42.9686V43.2025H5.12788V42.9686ZM4.0314 41.1384H4.26531V40.0419H4.0314H3.7975V41.1384H4.0314ZM4.0314 40.0419V40.2758H5.12788V40.0419V39.808H4.0314V40.0419ZM5.12788 40.0419H4.89398V41.1384H5.12788H5.36179V40.0419H5.12788ZM5.12788 41.1384V40.9045H4.0314V41.1384V41.3723H5.12788V41.1384ZM4.0314 39.3082H4.26531V38.2035H4.0314H3.7975V39.3082H4.0314ZM4.0314 38.2035V38.4374H5.12788V38.2035V37.9696H4.0314V38.2035ZM5.12788 38.2035H4.89398V39.3082H5.12788H5.36179V38.2035H5.12788ZM5.12788 39.3082V39.0743H4.0314V39.3082V39.5421H5.12788V39.3082ZM0.362744 37.4697H0.59665V36.3733H0.362744H0.128838V37.4697H0.362744ZM0.362744 36.3733V36.6072H1.46746V36.3733V36.1393H0.362744V36.3733ZM1.46746 36.3733H1.23356V37.4697H1.46746H1.70137V36.3733H1.46746ZM1.46746 37.4697V37.2358H0.362744V37.4697V37.7036H1.46746V37.4697ZM2.2012 37.4697H2.4351V36.3733H2.2012H1.96729V37.4697H2.2012ZM2.2012 36.3733V36.6072H3.29767V36.3733V36.1393H2.2012V36.3733ZM3.29767 36.3733H3.06377V37.4697H3.29767H3.53158V36.3733H3.29767ZM3.29767 37.4697V37.2358H2.2012V37.4697V37.7036H3.29767V37.4697ZM4.0314 37.4697H4.26531V36.3733H4.0314H3.7975V37.4697H4.0314ZM4.0314 36.3733V36.6072H5.12788V36.3733V36.1393H4.0314V36.3733ZM5.12788 36.3733H4.89398V37.4697H5.12788H5.36179V36.3733H5.12788ZM5.12788 37.4697V37.2358H4.0314V37.4697V37.7036H5.12788V37.4697ZM4.0314 35.6395H4.26531V34.543H4.0314H3.7975V35.6395H4.0314ZM4.0314 34.543V34.7769H5.12788V34.543V34.3091H4.0314V34.543ZM5.12788 34.543H4.89398V35.6395H5.12788H5.36179V34.543H5.12788ZM5.12788 35.6395V35.4056H4.0314V35.6395V35.8734H5.12788V35.6395Z" fill="white" mask="url(#path-1-outside-1_220_7359)"/>
<rect x="9.8457" y="32.3271" width="8.77599" height="14.6664" fill="white"/>
</svg>
